<?xml version="1.0" encoding="utf-8"?>
<!-- Generator: Adobe Illustrator 22.1.0, SVG Export Plug-In . SVG Version: 6.00 Build 0)  -->
<svg width="300" height="50" version="1.1" id="Layer_1" xmlns="http://www.w3.org/2000/svg" xmlns:xlink="http://www.w3.org/1999/xlink" x="0px" y="0px"
	 viewBox="0 -25 1410.3 120" style="enable-background:new 0 0 300 50;" xml:space="preserve">
<style type="text/css">
	.st0, .st1, .st2, .st3, .st4, .st5, .st6, .st7, .st8, .st9, .st10, .st11 {fill:#343EE4;stroke:#343EE4;stroke-width:2;stroke-miterlimit:10;}
</style>
	<path class="st0" d="M90.2,79.5H72L56.8,27.8h-0.3L41.4,79.5H23L1.3,3.1h19.9l12.1,50.9h0.3L47.2,3.1h19.2l13.7,50.9h0.3L92.8,3.1
		H112L90.2,79.5z"/>
	<path class="st1" d="M161.7,79.5V3.1h18.6v76.5H161.7z"/>
	<path class="st2" d="M286.4,79.5l-30.8-50h-0.3l0.4,50h-17.9V3.1h21.1l30.7,49.9h0.3l-0.4-49.9h17.9v76.5H286.4z"/>
	<path class="st3" d="M434.3,79.5l0.4-54.1h-0.3l-19.9,54.1h-13l-19.3-54.1h-0.3l0.4,54.1H365V3.1h26.3l17.4,49h0.4l16.7-49h26.7
		v76.5H434.3z"/>
	<path class="st4" d="M589.6,41c0,6-1,11.6-3.1,16.6c-2.1,5-5,9.3-8.7,12.9c-3.7,3.6-8.1,6.3-13.2,8.3c-5.1,1.9-10.7,2.9-16.6,2.9
		c-6,0-11.5-1-16.6-2.9c-5.1-1.9-9.5-4.7-13.2-8.3c-3.7-3.6-6.6-7.8-8.7-12.9c-2.1-5-3.1-10.5-3.1-16.6c0-6.1,1-11.6,3.1-16.6
		c2.1-4.9,5-9.1,8.7-12.6c3.7-3.5,8.1-6.1,13.2-8c5.1-1.9,10.6-2.8,16.6-2.8c6,0,11.5,0.9,16.6,2.8c5.1,1.9,9.5,4.5,13.2,8
		c3.7,3.5,6.6,7.7,8.7,12.6C588.6,29.3,589.6,34.8,589.6,41z M569.8,41c0-3.3-0.5-6.4-1.6-9.3c-1.1-2.9-2.6-5.3-4.5-7.4
		c-1.9-2.1-4.2-3.7-6.9-4.9c-2.7-1.2-5.7-1.8-8.9-1.8c-3.2,0-6.2,0.6-8.9,1.8c-2.7,1.2-5,2.8-6.9,4.9c-1.9,2.1-3.4,4.5-4.5,7.4
		c-1,2.9-1.6,6-1.6,9.3c0,3.5,0.5,6.6,1.6,9.6s2.6,5.4,4.5,7.5c1.9,2.1,4.2,3.7,6.9,4.9c2.7,1.2,5.6,1.8,8.9,1.8
		c3.2,0,6.2-0.6,8.9-1.8c2.7-1.2,5-2.8,6.9-4.9c1.9-2.1,3.5-4.6,4.5-7.5S569.8,44.4,569.8,41z"/>
	<path class="st5" d="M692.2,79.5l-30.8-50h-0.3l0.4,50h-17.9V3.1h21.1l30.7,49.9h0.3l-0.4-49.9h17.9v76.5H692.2z"/>
	<path class="st6" d="M850.4,41c0,6-1,11.6-3.1,16.6c-2.1,5-5,9.3-8.7,12.9c-3.7,3.6-8.1,6.3-13.2,8.3c-5.1,1.9-10.7,2.9-16.6,2.9
		c-6,0-11.5-1-16.6-2.9c-5.1-1.9-9.5-4.7-13.2-8.3c-3.7-3.6-6.6-7.8-8.7-12.9c-2.1-5-3.1-10.5-3.1-16.6c0-6.1,1-11.6,3.1-16.6
		c2.1-4.9,5-9.1,8.7-12.6c3.7-3.5,8.1-6.1,13.2-8c5.1-1.9,10.6-2.8,16.6-2.8c6,0,11.5,0.9,16.6,2.8c5.1,1.9,9.5,4.5,13.2,8
		c3.7,3.5,6.6,7.7,8.7,12.6C849.4,29.3,850.4,34.8,850.4,41z M830.7,41c0-3.3-0.5-6.4-1.6-9.3c-1.1-2.9-2.6-5.3-4.5-7.4
		c-1.9-2.1-4.2-3.7-6.9-4.9c-2.7-1.2-5.7-1.8-8.9-1.8c-3.2,0-6.2,0.6-8.9,1.8c-2.7,1.2-5,2.8-6.9,4.9c-1.9,2.1-3.4,4.5-4.5,7.4
		c-1,2.9-1.6,6-1.6,9.3c0,3.5,0.5,6.6,1.6,9.6s2.6,5.4,4.5,7.5c1.9,2.1,4.2,3.7,6.9,4.9c2.7,1.2,5.6,1.8,8.9,1.8
		c3.2,0,6.2-0.6,8.9-1.8c2.7-1.2,5-2.8,6.9-4.9c1.9-2.1,3.5-4.6,4.5-7.5S830.7,44.4,830.7,41z"/>
	<path class="st7" d="M962.4,26.6c0,4.5-0.8,8.2-2.5,11.3c-1.7,3.1-3.9,5.5-6.7,7.4c-2.8,1.9-6,3.2-9.7,4.1
		c-3.7,0.9-7.5,1.3-11.4,1.3h-9.2v28.8h-18.5V3.1h28.1c4.2,0,8.1,0.4,11.7,1.2c3.6,0.8,6.8,2.2,9.5,4c2.7,1.8,4.8,4.2,6.4,7.2
		C961.6,18.5,962.4,22.2,962.4,26.6z M943.9,26.7c0-1.8-0.4-3.3-1.1-4.4c-0.7-1.2-1.7-2.1-2.9-2.7c-1.2-0.6-2.6-1.1-4.2-1.3
		c-1.5-0.2-3.2-0.3-4.8-0.3h-8.1v18h7.8c1.7,0,3.4-0.1,5-0.4c1.6-0.3,3-0.8,4.3-1.5c1.3-0.7,2.2-1.7,3-2.9
		C943.6,30,943.9,28.5,943.9,26.7z"/>
	<path class="st8" d="M1095,41c0,6-1,11.6-3.1,16.6c-2.1,5-5,9.3-8.7,12.9c-3.7,3.6-8.1,6.3-13.2,8.3c-5.1,1.9-10.7,2.9-16.6,2.9
		c-6,0-11.5-1-16.6-2.9c-5.1-1.9-9.5-4.7-13.2-8.3c-3.7-3.6-6.6-7.8-8.7-12.9c-2.1-5-3.1-10.5-3.1-16.6c0-6.1,1-11.6,3.1-16.6
		c2.1-4.9,5-9.1,8.7-12.6c3.7-3.5,8.1-6.1,13.2-8c5.1-1.9,10.6-2.8,16.6-2.8c6,0,11.5,0.9,16.6,2.8c5.1,1.9,9.5,4.5,13.2,8
		c3.7,3.5,6.6,7.7,8.7,12.6C1094,29.3,1095,34.8,1095,41z M1075.3,41c0-3.3-0.5-6.4-1.6-9.3c-1.1-2.9-2.6-5.3-4.5-7.4
		c-1.9-2.1-4.2-3.7-6.9-4.9c-2.7-1.2-5.7-1.8-8.9-1.8c-3.2,0-6.2,0.6-8.9,1.8c-2.7,1.2-5,2.8-6.9,4.9c-1.9,2.1-3.4,4.5-4.5,7.4
		c-1,2.9-1.6,6-1.6,9.3c0,3.5,0.5,6.6,1.6,9.6s2.6,5.4,4.5,7.5c1.9,2.1,4.2,3.7,6.9,4.9c2.7,1.2,5.6,1.8,8.9,1.8
		c3.2,0,6.2-0.6,8.9-1.8c2.7-1.2,5-2.8,6.9-4.9c1.9-2.1,3.5-4.6,4.5-7.5S1075.3,44.4,1075.3,41z"/>
	<path class="st9" d="M1149,79.5V3.1h18.6v60.4h29.6v16.1H1149z"/>
	<path class="st10" d="M1247.6,79.5V3.1h51.4v15.6h-33.6v14.5h31.8v14.8h-31.8v15.9h35.5v15.8H1247.6z"/>
	<path class="st11" d="M1387.7,18.8v60.7h-18.5V18.8h-21.6V3.1h61.7v15.8H1387.7z"/>
<rect x="1.3" y="0.6" class="st1" width="0" height="2.6"/>
</svg>
