<?xml version="1.0" encoding="UTF-8" standalone="no"?>
<!DOCTYPE svg PUBLIC "-//W3C//DTD SVG 1.1//EN" "http://www.w3.org/Graphics/SVG/1.1/DTD/svg11.dtd">
<svg version="1.1" xmlns="http://www.w3.org/2000/svg" xmlns:xlink="http://www.w3.org/1999/xlink" preserveAspectRatio="xMidYMid meet" viewBox="0 0 300 50" width="300" height="50"><defs><path class="letter" d="M19.96 37.36L24.84 22L24.79 21.97L14.85 34.19L11.78 32.29L19.12 9.68L22.45 11.74L17.16 26.56L17.21 26.59L26.78 14.42L29.99 16.41L24.97 31.4L25.02 31.43L34.39 19.14L37.6 21.12L22.99 39.24L19.96 37.36Z" id="a5zoCfeopE"></path><path class="letter" d="M48.85 14.44L51.95 16.36L40.97 36.76L37.87 34.84L48.85 14.44Z" id="a3WOBc57p"></path><path class="letter" d="M63.36 20.68L63.31 20.65L56.2 34.03L53.21 32.18L64.17 11.81L67.69 13.99L65.66 30.46L65.71 30.49L72.8 17.15L75.79 19L64.81 39.4L61.3 37.23L63.36 20.68Z" id="ab2dnlOnj"></path><path class="letter" d="M97.35 24.03L97.3 24L86.21 36.37L84.04 35.02L88.59 18.6L88.54 18.57L80.84 33.04L77.95 31.25L88.92 10.88L93.31 13.6L89.18 28.46L89.24 28.5L99.06 17.16L103.52 19.92L92.54 40.32L89.5 38.44L97.35 24.03Z" id="bnobEBeJd"></path><path class="letter" d="M120.44 13.88L120.69 13.9L120.95 13.94L121.2 13.98L121.44 14.03L121.69 14.1L121.93 14.17L122.18 14.26L122.41 14.35L122.65 14.46L122.89 14.58L123.12 14.7L123.35 14.84L123.58 14.99L123.8 15.14L124.01 15.3L124.22 15.47L124.41 15.64L124.6 15.82L124.79 16.01L124.96 16.21L125.13 16.41L125.29 16.62L125.44 16.84L125.58 17.07L125.72 17.3L125.85 17.54L125.97 17.79L126.09 18.04L126.19 18.29L126.29 18.55L126.38 18.81L126.46 19.08L126.54 19.35L126.6 19.63L126.66 19.92L126.71 20.21L126.74 20.5L126.78 20.8L126.8 21.11L126.81 21.42L126.82 21.73L126.82 22.04L126.8 22.37L126.79 22.69L126.76 23.02L126.72 23.35L126.68 23.68L126.63 24.02L126.57 24.36L126.5 24.71L126.42 25.06L126.33 25.41L126.24 25.77L126.13 26.12L126.02 26.48L125.89 26.84L125.76 27.2L125.62 27.57L125.46 27.93L125.3 28.3L125.13 28.67L124.95 29.05L124.75 29.43L124.55 29.81L124.35 30.17L124.15 30.53L123.94 30.88L123.73 31.22L123.51 31.56L123.29 31.88L123.07 32.2L122.84 32.51L122.61 32.81L122.38 33.1L122.14 33.38L121.9 33.65L121.65 33.91L121.41 34.17L121.16 34.41L120.91 34.64L120.66 34.87L120.41 35.08L120.15 35.29L119.9 35.48L119.64 35.67L119.39 35.84L119.13 36.01L118.87 36.17L118.61 36.31L118.35 36.45L118.09 36.58L117.83 36.7L117.57 36.8L117.31 36.9L117.05 36.98L116.79 37.06L116.52 37.12L116.26 37.18L116 37.22L115.74 37.26L115.48 37.28L115.22 37.3L114.96 37.3L114.7 37.29L114.44 37.27L114.19 37.24L113.93 37.2L113.68 37.15L113.43 37.09L113.19 37.01L112.94 36.93L112.7 36.84L112.47 36.73L112.23 36.62L112 36.5L111.77 36.36L111.54 36.21L111.32 36.06L111.11 35.9L110.91 35.73L110.71 35.55L110.53 35.37L110.35 35.17L110.17 34.97L110.01 34.77L109.85 34.55L109.7 34.33L109.55 34.11L109.42 33.87L109.29 33.63L109.17 33.38L109.05 33.13L108.95 32.87L108.86 32.61L108.77 32.34L108.69 32.06L108.62 31.78L108.56 31.49L108.51 31.2L108.47 30.9L108.43 30.6L108.4 30.29L108.39 29.98L108.37 29.67L108.37 29.35L108.37 29.03L108.39 28.71L108.41 28.38L108.44 28.05L108.48 27.71L108.53 27.37L108.58 27.02L108.65 26.67L108.72 26.32L108.8 25.95L108.89 25.6L108.99 25.24L109.1 24.88L109.22 24.52L109.34 24.16L109.48 23.79L109.62 23.43L109.77 23.06L109.93 22.69L110.1 22.33L110.28 21.95L110.47 21.58L110.67 21.21L110.87 20.84L111.08 20.48L111.29 20.12L111.5 19.78L111.72 19.45L111.94 19.12L112.16 18.81L112.38 18.5L112.61 18.2L112.85 17.91L113.08 17.63L113.32 17.36L113.57 17.1L113.81 16.86L114.06 16.62L114.3 16.39L114.55 16.17L114.8 15.96L115.05 15.77L115.3 15.58L115.55 15.4L115.81 15.23L116.06 15.07L116.31 14.91L116.57 14.77L116.83 14.64L117.09 14.52L117.35 14.41L117.6 14.31L117.86 14.22L118.12 14.14L118.37 14.07L118.63 14.02L118.89 13.97L119.15 13.93L119.4 13.9L119.66 13.88L119.92 13.87L120.18 13.87L120.44 13.88ZM118.94 18.84L118.68 18.89L118.41 18.95L118.15 19.04L117.88 19.14L117.62 19.27L117.36 19.41L117.09 19.57L116.83 19.75L116.57 19.95L116.31 20.16L116.06 20.4L115.8 20.65L115.54 20.92L115.29 21.21L115.05 21.52L114.82 21.83L114.59 22.16L114.36 22.51L114.15 22.86L113.94 23.23L113.73 23.63L113.54 24.02L113.37 24.41L113.21 24.8L113.07 25.18L112.94 25.57L112.83 25.96L112.73 26.34L112.65 26.71L112.59 27.07L112.55 27.42L112.52 27.76L112.5 28.1L112.5 28.42L112.52 28.74L112.55 29.05L112.6 29.35L112.66 29.64L112.74 29.91L112.84 30.18L112.95 30.44L113.08 30.69L113.22 30.92L113.38 31.14L113.55 31.34L113.74 31.52L113.95 31.69L114.18 31.84L114.41 31.97L114.65 32.08L114.89 32.17L115.14 32.23L115.4 32.27L115.66 32.29L115.92 32.28L116.19 32.26L116.45 32.21L116.72 32.15L116.98 32.06L117.25 31.96L117.51 31.83L117.78 31.69L118.04 31.53L118.31 31.34L118.57 31.14L118.84 30.93L119.1 30.69L119.35 30.43L119.6 30.15L119.85 29.86L120.1 29.55L120.34 29.22L120.58 28.87L120.81 28.51L121.04 28.14L121.25 27.76L121.45 27.38L121.63 27.01L121.8 26.63L121.95 26.25L122.09 25.87L122.21 25.49L122.32 25.12L122.41 24.74L122.48 24.38L122.54 24.02L122.59 23.67L122.61 23.34L122.63 23L122.63 22.68L122.61 22.36L122.58 22.05L122.53 21.75L122.47 21.47L122.39 21.19L122.29 20.92L122.18 20.66L122.05 20.41L121.91 20.18L121.75 19.96L121.57 19.76L121.38 19.57L121.17 19.41L120.95 19.26L120.72 19.13L120.48 19.02L120.24 18.93L119.99 18.87L119.73 18.83L119.47 18.81L119.21 18.82L118.94 18.84Z" id="bR40LBJiP"></path><path class="letter" d="M141.55 20.68L141.5 20.65L134.39 34.03L131.41 32.18L142.37 11.81L145.89 13.99L143.85 30.46L143.9 30.49L151 17.15L153.99 19L143.01 39.4L139.5 37.23L141.55 20.68Z" id="c3QiLzUUdi"></path><path class="letter" d="M170.7 13.88L170.95 13.9L171.2 13.94L171.45 13.98L171.7 14.03L171.95 14.1L172.19 14.17L172.43 14.26L172.67 14.35L172.91 14.46L173.14 14.58L173.38 14.7L173.61 14.84L173.84 14.99L174.06 15.14L174.27 15.3L174.47 15.47L174.67 15.64L174.86 15.82L175.04 16.01L175.22 16.21L175.38 16.41L175.54 16.62L175.7 16.84L175.84 17.07L175.98 17.3L176.11 17.54L176.23 17.79L176.34 18.04L176.45 18.29L176.55 18.55L176.64 18.81L176.72 19.08L176.79 19.35L176.86 19.63L176.91 19.92L176.96 20.21L177 20.5L177.03 20.8L177.05 21.11L177.07 21.42L177.07 21.73L177.07 22.04L177.06 22.37L177.04 22.69L177.01 23.02L176.98 23.35L176.93 23.68L176.88 24.02L176.82 24.36L176.75 24.71L176.68 25.06L176.59 25.41L176.49 25.77L176.39 26.12L176.27 26.48L176.15 26.84L176.02 27.2L175.87 27.57L175.72 27.93L175.56 28.3L175.38 28.67L175.2 29.05L175.01 29.43L174.81 29.81L174.61 30.17L174.41 30.53L174.2 30.88L173.98 31.22L173.77 31.56L173.55 31.88L173.33 32.2L173.1 32.51L172.87 32.81L172.63 33.1L172.4 33.38L172.16 33.65L171.91 33.91L171.66 34.17L171.42 34.41L171.17 34.64L170.92 34.87L170.66 35.08L170.41 35.29L170.16 35.48L169.9 35.67L169.64 35.84L169.39 36.01L169.13 36.17L168.87 36.31L168.61 36.45L168.35 36.58L168.08 36.7L167.82 36.8L167.56 36.9L167.3 36.98L167.04 37.06L166.78 37.12L166.52 37.18L166.26 37.22L166 37.26L165.74 37.28L165.48 37.3L165.21 37.3L164.95 37.29L164.7 37.27L164.44 37.24L164.19 37.2L163.94 37.15L163.69 37.09L163.44 37.01L163.2 36.93L162.96 36.84L162.72 36.73L162.49 36.62L162.26 36.5L162.03 36.36L161.8 36.21L161.58 36.06L161.37 35.9L161.17 35.73L160.97 35.55L160.78 35.37L160.6 35.17L160.43 34.97L160.26 34.77L160.1 34.55L159.95 34.33L159.81 34.11L159.67 33.87L159.54 33.63L159.42 33.38L159.31 33.13L159.21 32.87L159.11 32.61L159.03 32.34L158.95 32.06L158.88 31.78L158.82 31.49L158.77 31.2L158.72 30.9L158.69 30.6L158.66 30.29L158.64 29.98L158.63 29.67L158.63 29.35L158.63 29.03L158.64 28.71L158.67 28.38L158.7 28.05L158.73 27.71L158.78 27.37L158.84 27.02L158.9 26.67L158.98 26.32L159.06 25.95L159.15 25.6L159.25 25.24L159.36 24.88L159.47 24.52L159.6 24.16L159.73 23.79L159.88 23.43L160.03 23.06L160.19 22.69L160.36 22.33L160.54 21.95L160.73 21.58L160.93 21.21L161.13 20.84L161.34 20.48L161.55 20.12L161.76 19.78L161.97 19.45L162.19 19.12L162.42 18.81L162.64 18.5L162.87 18.2L163.1 17.91L163.34 17.63L163.58 17.36L163.83 17.1L164.07 16.86L164.31 16.62L164.56 16.39L164.81 16.17L165.06 15.96L165.31 15.77L165.56 15.58L165.81 15.4L166.06 15.23L166.32 15.07L166.57 14.91L166.83 14.77L167.09 14.64L167.34 14.52L167.6 14.41L167.86 14.31L168.12 14.22L168.37 14.14L168.63 14.07L168.89 14.02L169.15 13.97L169.4 13.93L169.66 13.9L169.92 13.88L170.18 13.87L170.44 13.87L170.7 13.88ZM169.22 18.85L168.95 18.9L168.69 18.96L168.42 19.05L168.16 19.15L167.89 19.28L167.63 19.42L167.36 19.58L167.1 19.76L166.84 19.96L166.59 20.17L166.33 20.41L166.07 20.66L165.82 20.93L165.57 21.22L165.33 21.53L165.09 21.84L164.86 22.17L164.64 22.52L164.42 22.87L164.21 23.24L164.01 23.64L163.82 24.03L163.64 24.42L163.49 24.81L163.34 25.19L163.22 25.58L163.1 25.97L163.01 26.35L162.93 26.73L162.87 27.08L162.82 27.43L162.79 27.77L162.78 28.11L162.78 28.43L162.79 28.75L162.82 29.06L162.87 29.36L162.94 29.65L163.02 29.92L163.11 30.19L163.23 30.45L163.35 30.7L163.49 30.93L163.65 31.15L163.83 31.35L164.02 31.53L164.23 31.7L164.45 31.85L164.68 31.98L164.92 32.09L165.17 32.18L165.42 32.24L165.67 32.28L165.93 32.3L166.2 32.29L166.46 32.27L166.73 32.22L166.99 32.16L167.26 32.07L167.52 31.97L167.79 31.84L168.05 31.7L168.32 31.54L168.58 31.35L168.85 31.15L169.11 30.94L169.37 30.7L169.63 30.44L169.88 30.16L170.13 29.87L170.37 29.56L170.62 29.23L170.85 28.88L171.09 28.52L171.31 28.15L171.52 27.77L171.72 27.39L171.9 27.02L172.07 26.64L172.22 26.26L172.36 25.88L172.48 25.51L172.59 25.13L172.68 24.75L172.76 24.39L172.82 24.03L172.86 23.69L172.89 23.35L172.9 23.01L172.9 22.69L172.89 22.37L172.85 22.06L172.81 21.76L172.74 21.48L172.66 21.2L172.57 20.93L172.45 20.67L172.33 20.42L172.18 20.19L172.02 19.97L171.85 19.77L171.65 19.59L171.45 19.42L171.23 19.27L170.99 19.14L170.76 19.03L170.51 18.94L170.26 18.88L170.01 18.84L169.75 18.82L169.48 18.83L169.22 18.85Z" id="fQa43iHJ6"></path><path class="letter" d="M197.33 15.42L197.5 15.53L197.67 15.65L197.83 15.77L197.98 15.89L198.13 16.01L198.28 16.14L198.42 16.28L198.56 16.41L198.69 16.55L198.82 16.69L198.94 16.84L199.06 16.98L199.17 17.14L199.28 17.3L199.38 17.46L199.47 17.62L199.56 17.79L199.64 17.97L199.71 18.15L199.78 18.33L199.84 18.51L199.9 18.7L199.95 18.88L200 19.08L200.03 19.27L200.06 19.47L200.08 19.68L200.1 19.88L200.1 20.1L200.1 20.31L200.09 20.54L200.08 20.76L200.05 20.99L200.02 21.23L199.99 21.47L199.94 21.71L199.88 21.95L199.81 22.2L199.73 22.46L199.65 22.72L199.55 22.98L199.45 23.25L199.33 23.52L199.21 23.8L199.07 24.08L198.93 24.37L198.78 24.66L198.62 24.96L198.45 25.24L198.29 25.51L198.12 25.77L197.96 26.01L197.79 26.25L197.62 26.47L197.45 26.68L197.27 26.88L197.1 27.07L196.92 27.25L196.74 27.42L196.56 27.58L196.38 27.72L196.19 27.86L196.01 27.99L195.83 28.11L195.65 28.22L195.47 28.32L195.29 28.41L195.11 28.5L194.93 28.57L194.74 28.64L194.56 28.7L194.37 28.75L194.19 28.79L194.01 28.82L193.82 28.85L193.64 28.87L193.46 28.88L193.27 28.88L193.09 28.88L192.91 28.87L192.72 28.85L192.54 28.82L192.35 28.79L192.17 28.75L191.98 28.71L191.8 28.66L191.62 28.6L191.45 28.54L191.27 28.47L191.1 28.4L190.93 28.32L190.76 28.24L190.59 28.15L190.43 28.06L190.26 27.96L188.73 27.01L184.59 34.69L181.51 32.77L192.47 12.4L197.16 15.31L197.33 15.42ZM192.12 23.88L192.34 24.01L192.56 24.12L192.78 24.22L193.01 24.29L193.25 24.34L193.48 24.37L193.71 24.36L193.95 24.34L194.18 24.28L194.41 24.17L194.64 24.04L194.86 23.87L195.08 23.67L195.28 23.41L195.48 23.12L195.68 22.78L195.85 22.43L195.98 22.09L196.07 21.78L196.12 21.49L196.15 21.21L196.14 20.94L196.1 20.69L196.03 20.47L195.93 20.26L195.82 20.06L195.68 19.86L195.51 19.69L195.34 19.54L195.15 19.39L194.96 19.24L194.76 19.11L193.4 18.28L190.82 23.08L192.12 23.88Z" id="dDWuaJzGb"></path><path class="letter" d="M217.83 13.88L218.09 13.9L218.34 13.94L218.59 13.98L218.84 14.03L219.08 14.1L219.33 14.17L219.57 14.26L219.81 14.35L220.04 14.46L220.28 14.58L220.51 14.7L220.74 14.84L220.97 14.99L221.19 15.14L221.4 15.3L221.61 15.47L221.81 15.64L221.99 15.82L222.18 16.01L222.35 16.21L222.52 16.41L222.68 16.62L222.83 16.84L222.98 17.07L223.11 17.3L223.24 17.54L223.36 17.79L223.48 18.04L223.58 18.29L223.68 18.55L223.77 18.81L223.85 19.08L223.93 19.35L223.99 19.63L224.05 19.92L224.1 20.21L224.14 20.5L224.17 20.8L224.19 21.11L224.2 21.42L224.21 21.73L224.21 22.04L224.2 22.37L224.18 22.69L224.15 23.02L224.11 23.35L224.07 23.68L224.02 24.02L223.96 24.36L223.89 24.71L223.81 25.06L223.72 25.41L223.63 25.77L223.52 26.12L223.41 26.48L223.28 26.84L223.15 27.2L223.01 27.57L222.85 27.93L222.69 28.3L222.52 28.67L222.34 29.05L222.15 29.43L221.95 29.81L221.74 30.17L221.54 30.53L221.33 30.88L221.12 31.22L220.9 31.56L220.68 31.88L220.46 32.2L220.23 32.51L220 32.81L219.77 33.1L219.53 33.38L219.29 33.65L219.05 33.91L218.8 34.17L218.55 34.41L218.3 34.64L218.05 34.87L217.8 35.08L217.55 35.29L217.29 35.48L217.04 35.67L216.78 35.84L216.52 36.01L216.26 36.17L216 36.31L215.74 36.45L215.48 36.58L215.22 36.7L214.96 36.8L214.7 36.9L214.44 36.98L214.18 37.06L213.92 37.12L213.66 37.18L213.39 37.22L213.13 37.26L212.87 37.28L212.61 37.3L212.35 37.3L212.09 37.29L211.83 37.27L211.58 37.24L211.32 37.2L211.07 37.15L210.83 37.09L210.58 37.01L210.34 36.93L210.1 36.84L209.86 36.73L209.62 36.62L209.39 36.5L209.16 36.36L208.93 36.21L208.72 36.06L208.5 35.9L208.3 35.73L208.11 35.55L207.92 35.37L207.74 35.17L207.56 34.97L207.4 34.77L207.24 34.55L207.09 34.33L206.94 34.11L206.81 33.87L206.68 33.63L206.56 33.38L206.45 33.13L206.34 32.87L206.25 32.61L206.16 32.34L206.08 32.06L206.02 31.78L205.95 31.49L205.9 31.2L205.86 30.9L205.82 30.6L205.8 30.29L205.78 29.98L205.76 29.67L205.76 29.35L205.77 29.03L205.78 28.71L205.8 28.38L205.83 28.05L205.87 27.71L205.92 27.37L205.97 27.02L206.04 26.67L206.11 26.32L206.2 25.95L206.28 25.6L206.38 25.24L206.49 24.88L206.61 24.52L206.73 24.16L206.87 23.79L207.01 23.43L207.16 23.06L207.32 22.69L207.49 22.33L207.67 21.95L207.86 21.58L208.06 21.21L208.26 20.84L208.47 20.48L208.68 20.12L208.89 19.78L209.11 19.45L209.33 19.12L209.55 18.81L209.78 18.5L210.01 18.2L210.24 17.91L210.48 17.63L210.72 17.36L210.96 17.1L211.2 16.86L211.45 16.62L211.7 16.39L211.94 16.17L212.19 15.96L212.44 15.77L212.69 15.58L212.94 15.4L213.2 15.23L213.45 15.07L213.71 14.91L213.96 14.77L214.22 14.64L214.48 14.52L214.74 14.41L214.99 14.31L215.25 14.22L215.51 14.14L215.77 14.07L216.02 14.02L216.28 13.97L216.54 13.93L216.8 13.9L217.05 13.88L217.31 13.87L217.57 13.87L217.83 13.88ZM216.35 18.85L216.09 18.9L215.82 18.96L215.56 19.05L215.29 19.15L215.03 19.28L214.76 19.42L214.5 19.58L214.24 19.76L213.98 19.96L213.72 20.17L213.46 20.41L213.21 20.66L212.95 20.93L212.7 21.22L212.46 21.53L212.22 21.84L211.99 22.17L211.77 22.52L211.56 22.87L211.35 23.24L211.14 23.64L210.95 24.03L210.78 24.42L210.62 24.81L210.48 25.19L210.35 25.58L210.24 25.97L210.14 26.35L210.06 26.73L210 27.08L209.96 27.43L209.93 27.77L209.91 28.11L209.91 28.43L209.93 28.75L209.96 29.06L210.01 29.36L210.07 29.65L210.15 29.92L210.25 30.19L210.36 30.45L210.49 30.7L210.63 30.93L210.79 31.15L210.96 31.35L211.15 31.53L211.36 31.7L211.59 31.85L211.82 31.98L212.06 32.09L212.3 32.18L212.55 32.24L212.81 32.28L213.07 32.3L213.33 32.29L213.6 32.27L213.86 32.22L214.13 32.16L214.39 32.07L214.66 31.97L214.92 31.84L215.19 31.7L215.45 31.54L215.72 31.35L215.98 31.15L216.24 30.94L216.5 30.7L216.76 30.44L217.01 30.16L217.26 29.87L217.51 29.56L217.75 29.23L217.99 28.88L218.22 28.52L218.44 28.15L218.66 27.77L218.85 27.39L219.04 27.02L219.2 26.64L219.36 26.26L219.49 25.88L219.62 25.51L219.73 25.13L219.82 24.75L219.89 24.39L219.95 24.03L219.99 23.69L220.02 23.35L220.04 23.01L220.04 22.69L220.02 22.37L219.99 22.06L219.94 21.76L219.88 21.48L219.8 21.2L219.7 20.93L219.59 20.67L219.46 20.42L219.32 20.19L219.16 19.97L218.98 19.77L218.79 19.59L218.58 19.42L218.36 19.27L218.13 19.14L217.89 19.03L217.65 18.94L217.4 18.88L217.14 18.84L216.88 18.82L216.62 18.83L216.35 18.85Z" id="cR3v7l4Dn"></path><path class="letter" d="M239.49 12.91L242.59 14.83L233.92 30.94L238.86 34L236.55 38.29L228.51 33.31L239.49 12.91Z" id="b6ujVRkNNR"></path><path class="letter" d="M258.56 12.65L267.14 17.96L264.9 22.12L259.29 18.65L257.21 22.51L262.52 25.8L260.39 29.75L255.09 26.46L252.8 30.7L258.73 34.37L256.46 38.58L247.57 33.07L258.56 12.65Z" id="d8GVPlwfd0"></path><path class="letter" d="M273.65 36.73L270.56 34.82L279.28 18.63L275.67 16.4L277.92 12.21L288.22 18.59L285.95 22.8L282.35 20.57L273.65 36.73Z" id="ekQ3U9zcF"></path></defs><g><g><g><use xlink:href="#a5zoCfeopE" opacity="1" fill="#343ee4" fill-opacity="1"></use><g><use xlink:href="#a5zoCfeopE" opacity="1" fill-opacity="0" stroke="#343ee4" stroke-width="2" stroke-opacity="1"></use></g></g><g><use xlink:href="#a3WOBc57p" opacity="1" fill="#343ee4" fill-opacity="1"></use><g><use xlink:href="#a3WOBc57p" opacity="1" fill-opacity="0" stroke="#343ee4" stroke-width="2" stroke-opacity="1"></use></g></g><g><use xlink:href="#ab2dnlOnj" opacity="1" fill="#343ee4" fill-opacity="1"></use><g><use xlink:href="#ab2dnlOnj" opacity="1" fill-opacity="0" stroke="#343ee4" stroke-width="2" stroke-opacity="1"></use></g></g><g><use xlink:href="#bnobEBeJd" opacity="1" fill="#343ee4" fill-opacity="1"></use><g><use xlink:href="#bnobEBeJd" opacity="1" fill-opacity="0" stroke="#343ee4" stroke-width="2" stroke-opacity="1"></use></g></g><g><use xlink:href="#bR40LBJiP" opacity="1" fill="#343ee4" fill-opacity="1"></use><g><use xlink:href="#bR40LBJiP" opacity="1" fill-opacity="0" stroke="#343ee4" stroke-width="2" stroke-opacity="1"></use></g></g><g><use xlink:href="#c3QiLzUUdi" opacity="1" fill="#343ee4" fill-opacity="1"></use><g><use xlink:href="#c3QiLzUUdi" opacity="1" fill-opacity="0" stroke="#343ee4" stroke-width="2" stroke-opacity="1"></use></g></g><g><use xlink:href="#fQa43iHJ6" opacity="1" fill="#343ee4" fill-opacity="1"></use><g><use xlink:href="#fQa43iHJ6" opacity="1" fill-opacity="0" stroke="#343ee4" stroke-width="2" stroke-opacity="1"></use></g></g><g><use xlink:href="#dDWuaJzGb" opacity="1" fill="#343ee4" fill-opacity="1"></use><g><use xlink:href="#dDWuaJzGb" opacity="1" fill-opacity="0" stroke="#343ee4" stroke-width="2" stroke-opacity="1"></use></g></g><g><use xlink:href="#cR3v7l4Dn" opacity="1" fill="#343ee4" fill-opacity="1"></use><g><use xlink:href="#cR3v7l4Dn" opacity="1" fill-opacity="0" stroke="#343ee4" stroke-width="2" stroke-opacity="1"></use></g></g><g><use xlink:href="#b6ujVRkNNR" opacity="1" fill="#343ee4" fill-opacity="1"></use><g><use xlink:href="#b6ujVRkNNR" opacity="1" fill-opacity="0" stroke="#343ee4" stroke-width="2" stroke-opacity="1"></use></g></g><g><use xlink:href="#d8GVPlwfd0" opacity="1" fill="#343ee4" fill-opacity="1"></use><g><use xlink:href="#d8GVPlwfd0" opacity="1" fill-opacity="0" stroke="#343ee4" stroke-width="2" stroke-opacity="1"></use></g></g><g><use xlink:href="#ekQ3U9zcF" opacity="1" fill="#343ee4" fill-opacity="1"></use><g><use xlink:href="#ekQ3U9zcF" opacity="1" fill-opacity="0" stroke="#343ee4" stroke-width="2" stroke-opacity="1"></use></g></g></g></g></svg>
