<?xml version="1.0" encoding="utf-8"?>
<!-- Generator: Adobe Illustrator 22.1.0, SVG Export Plug-In . SVG Version: 6.00 Build 0)  -->
<svg version="1.1" id="Layer_1" xmlns="http://www.w3.org/2000/svg" xmlns:xlink="http://www.w3.org/1999/xlink" x="0px" y="0px"
	 viewBox="0 0 628.2 1117.9" style="enable-background:new 0 0 628.2 1117.9;" xml:space="preserve">
<style type="text/css">
	.st0{fill:#343EE4;}
</style>
<g>
	<g>
		<path class="st0" d="M227.1,22.3c-16,15.2-29.6,32.4-42.7,50c-4.7,6.3-9.2,12.8-13.3,19.6c-1.8,2.9-3.4,5.9-4.8,8.9
			c-4,8.7-8.4,17.7-10.9,27c-0.5,1.7-0.7,3.4-1,5.2c-1.2,7.6-2.8,15.5-2.9,23.1c-0.1,4.8,1,9.9,1.6,14.4c0.6,4.8,0.9,9.6,2.4,14.2
			c5.4,16.4,11.6,26.4,22.8,39.2c1.1,1.3,2.3,2.4,3.6,3.5c5.9,5,12.2,10.5,19.1,14.2c25.1,13.3,52.9,16.8,81,18.4
			c19.6,1.1,39.2,0.5,58.7,3.1c-6.7-0.9-13.5-1.8-20.2-2.7c9.5,1.4,18.7,3.6,27.7,7.3c-6.1-2.6-12.1-5.1-18.2-7.7
			c7.4,3.2,14.3,7.1,20.8,12c-5.1-4-10.3-7.9-15.4-11.9c4.7,3.7,8.9,7.8,12.6,12.4c-4-5.1-7.9-10.3-11.9-15.4
			c2.9,3.9,5.4,8,7.3,12.5c-2.6-6.1-5.1-12.1-7.7-18.2c1.5,3.7,2.5,7.5,3.1,11.4c-0.9-6.7-1.8-13.5-2.7-20.2
			c0.6,4.5,0.5,8.9-0.1,13.4c0.9-6.7,1.8-13.5,2.7-20.2c-0.6,3.9-1.6,7.6-3.1,11.2c2.6-6.1,5.1-12.1,7.7-18.2
			c-2,4.8-4.7,9.2-7.8,13.3c4-5.1,7.9-10.3,11.9-15.4c-4.2,5.3-9.1,10-14.4,14.2c5.1-4,10.3-7.9,15.4-11.9
			c-10.1,7.8-21.4,13.9-33.2,18.9c6.1-2.6,12.1-5.1,18.2-7.7c-19.1,8-39.1,13.9-58.8,20.4c-26.4,8.6-52.1,18.2-77.5,29.6
			c-48.7,21.8-89.3,57.5-118.4,102.2c-5.4,8.3-10.1,17-14.2,26c-6.5,14.4-13,29.2-17.3,44.5c-4.5,15.6-6.6,31.7-8.4,47.8
			c-0.3,2.6-0.5,5.1-0.5,7.7c0.1,8.5,1.5,17.8,3.2,26.1c1.7,8.3,5.7,16.5,9.4,23.7c0.6,1.1,1.1,2.1,1.8,3.1
			c3.7,5.7,8.9,12.6,13.6,17.5c6.8,7.2,15.2,13.8,24.2,18.2c9.6,4.6,19.9,9.4,30.5,11.4c17.1,3.1,34.7,5.1,52.1,4.6
			c29.8-0.9,60-6.3,88.8-14.4c51.6-14.6,100.6-38.2,154.1-45.4c-6.7,0.9-13.5,1.8-20.2,2.7c17-2.2,34-2.5,50.9-0.3
			c-6.7-0.9-13.5-1.8-20.2-2.7c13.7,1.9,27,5.4,39.8,10.8c-6.1-2.6-12.1-5.1-18.2-7.7c9.8,4.2,19,9.5,27.4,16
			c-5.1-4-10.3-7.9-15.4-11.9c6.8,5.4,12.9,11.4,18.3,18.3c-4-5.1-7.9-10.3-11.9-15.4c4.9,6.4,9,13.4,12.2,20.8
			c-2.6-6.1-5.1-12.1-7.7-18.2c3.4,8.3,5.7,16.9,6.9,25.8c-0.9-6.7-1.8-13.5-2.7-20.2c1.2,9.4,1.1,18.8-0.1,28.2
			c0.9-6.7,1.8-13.5,2.7-20.2c-1.3,8.9-3.6,17.5-7,25.9c2.6-6.1,5.1-12.1,7.7-18.2c-3.3,7.8-7.5,15.1-12.7,21.9
			c4-5.1,7.9-10.3,11.9-15.4c-5.2,6.6-11.2,12.4-17.8,17.6c5.1-4,10.3-7.9,15.4-11.9c-15,11.5-32.1,19.5-49.4,26.9
			c6.1-2.6,12.1-5.1,18.2-7.7c-83.2,34.9-173.4,48.6-257,82.2c-25.5,10.2-51.1,21-74.9,34.9c-8.4,4.9-16.6,10.3-24.4,16.2
			c-12.5,9.4-25.1,18.8-35.9,30.1c-10.6,11.1-20.4,23.5-28.4,36.7c-2.3,3.8-4.5,7.8-6.3,11.9c-4.6,10.1-9.4,20.4-12.5,31.2
			c-8.3,28.8-5.5,58.7,8.5,85.1c9.6,18.1,27,33.9,44.7,43.9c32.6,18.4,69.9,24.2,106.7,27.2c24.6,2,49.4,1.7,73.9,5
			c-6.7-0.9-13.5-1.8-20.2-2.7c16.3,2.2,32.5,6,47.7,12.4c-6.1-2.6-12.1-5.1-18.2-7.7c8.5,3.7,16.5,8.2,23.9,13.7
			c-5.1-4-10.3-7.9-15.4-11.9c6.2,4.8,11.7,10.1,16.5,16.3c-4-5.1-7.9-10.3-11.9-15.4c2.4,3.2,4.4,6.5,6,10.1
			c-2.6-6.1-5.1-12.1-7.7-18.2c1.5,3.6,2.5,7.3,3.1,11.2c-0.9-6.7-1.8-13.5-2.7-20.2c0.3,2.5,0.3,4.9,0.1,7.3
			c0.9-6.7,1.8-13.5,2.7-20.2c-0.3,1.9-0.7,3.8-1.4,5.6c2.6-6.1,5.1-12.1,7.7-18.2c-0.6,1.4-1.3,2.7-2.2,3.9
			c4-5.1,7.9-10.3,11.9-15.4c-1,1.2-2,2.3-3.2,3.3c5.1-4,10.3-7.9,15.4-11.9c-0.6,0.5-1.3,0.9-2,1.3c-16.5,10.1-29.8,26.6-34.9,45.4
			c-3.2,10.1-3.6,20.2-1.4,30.3c0.5,10.1,3.5,19.5,9,28.3c10.5,16.2,26,30.5,45.4,34.9c19.7,4.5,40.9,3.1,58.6-7.7
			c14-8.6,23.6-18.3,32.5-31.8c0.8-1.3,1.5-2.5,2.2-3.9c3.3-7,7.1-14.4,8.8-22c4.1-18.9,4.7-39.8-2-58.3
			c-3.2-8.9-6.6-18.2-11.6-26.4c-5.1-8.4-11.7-16.2-18.1-23.7c-9.1-10.4-20.9-19-32.1-26.7c-9.2-6.4-19.2-10.7-29.5-15
			c-10.4-4.4-20.7-8.6-31.6-11.4c-22.4-5.8-45.8-8.3-68.8-9.7c-22.2-1.4-44.4-1.6-66.4-4.4c6.7,0.9,13.5,1.8,20.2,2.7
			c-15.2-2.1-30.2-5.4-44.4-11.3c6.1,2.6,12.1,5.1,18.2,7.7c-5.4-2.3-10.5-5.1-15.2-8.7c5.1,4,10.3,7.9,15.4,11.9
			c-2.6-2.1-5-4.4-7.1-7c4,5.1,7.9,10.3,11.9,15.4c-1.4-1.9-2.6-3.9-3.6-6c2.6,6.1,5.1,12.1,7.7,18.2c-1-2.5-1.7-4.9-2.1-7.5
			c0.9,6.7,1.8,13.5,2.7,20.2c-0.3-3-0.3-5.9,0-8.9c-0.9,6.7-1.8,13.5-2.7,20.2c0.9-6.6,3-12.9,5.5-19.1c-2.6,6.1-5.1,12.1-7.7,18.2
			c3.9-9.2,9.1-17.7,15.2-25.7c-4,5.1-7.9,10.3-11.9,15.4c8.2-10.4,17.8-19.4,28.2-27.6c-5.1,4-10.3,7.9-15.4,11.9
			c22.5-17.3,48.2-30,74.3-41.1c-6.1,2.6-12.1,5.1-18.2,7.7c55.4-23.2,114-37.1,171.6-53.7c28.8-8.3,57.5-17.3,85.3-28.5
			c19-7.7,38.5-15.4,56.5-25.4c6.4-3.6,12.6-7.6,18.5-12c10.1-7.6,20.8-15.2,29.3-24.6c8.1-8.9,15.7-18.6,22.1-28.9
			c6.3-10.1,10.6-21.6,15-32.6c2.3-5.7,4.1-11.5,5.4-17.5c2.5-11.9,4.2-24.2,4.9-36.3c0.4-6.1,0.2-12.3-0.5-18.4
			c-1.3-11.9-2.6-24.4-5.8-36.1c-3.3-11.7-8.4-23.1-13.6-34c-2.6-5.4-5.7-10.4-9.3-15.2c-7.2-9.8-14.5-19.9-23.4-28.3
			c-8.7-8.2-18.4-15.5-28.2-22.2c-5.2-3.6-10.6-6.7-16.2-9.4c-10.9-5.3-22.2-10.1-33.7-14.1c-17.9-6.1-36.9-8.5-55.6-10.5
			c-13.4-1.4-26.9-1.2-40.3,0.2c-21.9,2.3-43.5,5.6-64.7,11.3c-15.3,4.1-30.4,9-45.4,14.2c-30.3,10.5-60.4,21.9-91.7,28.8
			c-8,1.8-16,3.2-24.1,4.3c6.7-0.9,13.5-1.8,20.2-2.7c-16.6,2.1-33.4,2.7-50,0.7c6.7,0.9,13.5,1.8,20.2,2.7
			c-5.2-0.7-10.3-1.8-15.3-3.8c6.1,2.6,12.1,5.1,18.2,7.7c-2.6-1.1-4.9-2.4-7.2-4.1c5.1,4,10.3,7.9,15.4,11.9
			c-1.4-1.2-2.7-2.4-3.9-3.8c4,5.1,7.9,10.3,11.9,15.4c-1.2-1.6-2.1-3.2-3-5c2.6,6.1,5.1,12.1,7.7,18.2c-0.8-2.1-1.3-4.2-1.7-6.5
			c0.9,6.7,1.8,13.5,2.7,20.2c-0.4-4.6-0.1-9.1,0.5-13.6c-0.9,6.7-1.8,13.5-2.7,20.2c2.3-16.5,6.8-32.6,13.2-47.9
			c-2.6,6.1-5.1,12.1-7.7,18.2c6.6-15.3,15-29.7,25.1-43c-4,5.1-7.9,10.3-11.9,15.4c9.9-12.7,21.3-24.2,34-34.1
			c-5.1,4-10.3,7.9-15.4,11.9c16.8-12.9,35.5-22.8,55-31.1c-6.1,2.6-12.1,5.1-18.2,7.7c26.8-11.2,54.7-19.4,82.2-28.7
			c18.4-6.2,36.6-13.1,54.2-21.4c16.5-7.8,31.4-18.7,45.2-30.7c8.8-7.6,15.6-17.2,22.6-26.5c7.1-9.5,11.2-20.5,15.5-31.5
			c1-2.6,1.9-5.2,2.5-8c2-8.9,3.1-18.3,3.7-27.4c0.2-2.9,0.1-5.9-0.3-8.8c-1-9-1.6-18.5-4.2-27.3c-2.4-8.4-6.3-16.5-9.9-24.3
			c-1.3-2.8-2.8-5.5-4.5-8c-6.5-9.6-13.8-19.7-22.5-27.5c-8.7-7.8-18.2-15.3-28.3-21.4c-10.5-6.3-22.2-10.8-33.5-15.1
			c-6.7-2.5-13.6-4.3-20.6-5.5c-15.1-2.5-30.3-4.4-45.6-5.1c-18.6-0.9-37.3-0.5-55.8-2.9c6.7,0.9,13.5,1.8,20.2,2.7
			c-7.2-1-14.4-2.3-21.2-5c6.1,2.6,12.1,5.1,18.2,7.7c-2.3-1-4.3-2.2-6.4-3.6c5.1,4,10.3,7.9,15.4,11.9c-1.5-1.2-2.9-2.6-4.1-4.1
			c4,5.1,7.9,10.3,11.9,15.4c-0.9-1.2-1.6-2.4-2.2-3.8c2.6,6.1,5.1,12.1,7.7,18.2c-0.7-1.8-1.2-3.5-1.6-5.4
			c0.9,6.7,1.8,13.5,2.7,20.2c-0.3-2.4-0.3-4.8,0-7.2c-0.9,6.7-1.8,13.5-2.7,20.2c0.6-4.1,1.7-8,3.3-11.9
			c-2.6,6.1-5.1,12.1-7.7,18.2c5.3-12.4,13.5-23.6,21.6-34.2c-4,5.1-7.9,10.3-11.9,15.4c8.6-11.1,18-21.5,28.2-31.2
			c7.4-6.9,12.6-15,15.7-24.5c4.8-9.1,6.9-18.8,6.5-29.3c0.4-10.5-1.8-20.2-6.5-29.3c-3.1-9.4-8.3-17.6-15.7-24.5
			C320.1,9,301.1-0.8,280.8,0.1C260.4,1,242.1,8,227.1,22.3L227.1,22.3z"/>
	</g>
</g>
</svg>
