<?xml version="1.0" encoding="utf-8"?>
<!-- Generator: Adobe Illustrator 22.1.0, SVG Export Plug-In . SVG Version: 6.00 Build 0)  -->
<svg version="1.1" id="Layer_1" xmlns="http://www.w3.org/2000/svg" xmlns:xlink="http://www.w3.org/1999/xlink" x="0px" y="0px"
	 viewBox="0 0 828 1119" style="enable-background:new 0 0 828 1119;" xml:space="preserve">
<style type="text/css">
	.st0{fill:#343EE4;}
</style>
<g>
	<g>
		<path class="st0" d="M321.9,10.4c-38.4,20.1-73.6,45-107.1,72.3c-28.9,23.5-55.4,50-78.8,78.9c-9.3,11.5-19.3,22.9-26.8,35.7
			c-5.3,9-9.2,19-12.7,28.7c-0.7,2-1.3,4.1-1.8,6.2c-1.5,6.9-2.2,14.7-3,21.8c-0.2,1.6-0.4,3.1-0.4,4.7
			c-0.3,41.9,27.2,80.4,64.9,97.5c13.6,6.2,27.4,12.4,42.2,15c14.9,2.7,30.3,4.9,45.5,4.6c15.7-0.3,31.4-2.7,46.8-5.4
			c8.9-1.6,17.7-3.7,26.4-6.2c42.7-12.5,82.2-34.9,126.7-41.3c-6.7,0.9-13.5,1.8-20.2,2.7c11.4-1.5,22.8-2.1,34.2-0.7
			c-6.7-0.9-13.5-1.8-20.2-2.7c6.5,0.9,12.7,2.4,18.7,4.9c-6.1-2.6-12.1-5.1-18.2-7.7c3.9,1.8,7.5,3.9,10.9,6.4
			c-5.1-4-10.3-7.9-15.4-11.9c2.9,2.4,5.5,5,7.8,7.9c-4-5.1-7.9-10.3-11.9-15.4c2.8,3.7,5.1,7.7,6.9,12c-2.6-6.1-5.1-12.1-7.7-18.2
			c1.9,4.8,3.2,9.8,4,14.9c-0.9-6.7-1.8-13.5-2.7-20.2c0.8,6.2,0.8,12.3,0,18.5c0.9-6.7,1.8-13.5,2.7-20.2
			c-0.9,6.5-2.8,12.7-5.3,18.7c2.6-6.1,5.1-12.1,7.7-18.2c-3.4,7.8-7.9,15-13.1,21.8c4-5.1,7.9-10.3,11.9-15.4
			c-8.7,11-19,20.4-30,28.9c5.1-4,10.3-7.9,15.4-11.9c-21.2,16.2-44.6,28.9-69.1,39.2c6.1-2.6,12.1-5.1,18.2-7.7
			C314.9,371,257.9,383,203.3,402.1c-19.2,6.7-38,14.5-56.6,22.8c-12.8,5.7-25.2,12.1-37,19.5c-33,21-62.4,47.5-83.1,81
			c-6.6,10.7-11.1,22.5-15.9,34.1c-2.5,6-4.5,12.2-5.9,18.6c-2,9.3-2.9,18.8-4.1,28.2c-0.5,3.9-0.8,7.7-0.6,11.6
			c0.4,8.1,1.7,16.4,3.1,24.4c0.3,1.6,0.6,3.3,1,4.9c2.1,7.5,5.8,15,9.1,22.1c0.7,1.5,1.5,3.1,2.4,4.5
			c10.5,16.1,23.1,28.7,39.6,38.8c2.7,1.7,5.5,3,8.4,4.3c8.7,3.8,17.4,7.8,26.4,10.7c7.6,2.4,15.5,4.1,23.4,5.3
			c14.1,2.2,28.3,4.3,42.6,4.7c22.7,0.7,45.7-2.6,68-6.5c16.5-2.9,32.6-7.1,48.6-12c32.5-10,64.1-22.8,96.1-34.5
			c64.3-23.6,129.9-45,197.6-56.6c8.3-1.4,16.7-2.7,25.1-3.8c-6.7,0.9-13.5,1.8-20.2,2.7c28.9-3.8,58.4-6.5,87.4-2.9
			c-6.7-0.9-13.5-1.8-20.2-2.7c12.7,1.7,25.2,4.8,37,9.7c-6.1-2.6-12.1-5.1-18.2-7.7c8.1,3.5,15.7,7.7,22.7,13.1
			c-5.1-4-10.3-7.9-15.4-11.9c5.9,4.7,11.2,10.1,15.9,16c-4-5.1-7.9-10.3-11.9-15.4c4.6,6,8.4,12.4,11.5,19.3
			c-2.6-6.1-5.1-12.1-7.7-18.2c2.7,6.4,4.6,12.9,5.6,19.8c-0.9-6.7-1.8-13.5-2.7-20.2c0.8,5.8,0.8,11.6,0.1,17.4
			c0.9-6.7,1.8-13.5,2.7-20.2c-0.7,5-2,9.7-3.9,14.4c2.6-6.1,5.1-12.1,7.7-18.2c-2.1,5-4.9,9.6-8.1,13.9c4-5.1,7.9-10.3,11.9-15.4
			c-4.3,5.5-9.3,10.3-14.8,14.6c5.1-4,10.3-7.9,15.4-11.9c-10.6,8-22.4,14-34.6,19.2c6.1-2.6,12.1-5.1,18.2-7.7
			c-106.9,44.9-225.2,45.8-335.8,77.2c-32.1,9.1-64.6,20.4-93.7,37c-16.7,9.5-32.6,21.3-46.4,34.6c-8.9,8.6-16.3,18.7-23.7,28.6
			c-3.9,5.2-7.4,10.5-10.5,16.2c-25.2,47.8-34,114.1,7.2,156.3c17.5,18,40.7,27.1,65,30.4c21.2,2.9,42.1,5.4,63.5,5.3
			c34.2-0.1,68.3-4.5,102.2-8.5c17.1-2,34.1-3.9,51.3-5.1c15.3-1.1,31.3-2.5,46.6-0.5c-6.7-0.9-13.5-1.8-20.2-2.7
			c3.6,0.6,7.1,1.4,10.5,2.8c-6.1-2.6-12.1-5.1-18.2-7.7c2,0.9,3.9,1.9,5.7,3.2c-5.1-4-10.3-7.9-15.4-11.9c1.4,1.1,2.6,2.2,3.7,3.5
			c-4-5.1-7.9-10.3-11.9-15.4c1.2,1.6,2.2,3.2,3.1,5.1c-2.6-6.1-5.1-12.1-7.7-18.2c1,2.6,1.6,5.2,2,7.9c-0.9-6.7-1.8-13.5-2.7-20.2
			c1.5,15.2-0.6,31.2-2.6,46.3c0.9-6.7,1.8-13.5,2.7-20.2c-2.2,15.8-5.5,31.4-9.9,46.8c-3.2,10.1-3.6,20.2-1.4,30.3
			c0.5,10.1,3.5,19.5,9,28.3c4.8,8.9,11.3,16,19.6,21.3c7.3,6.7,16,11.3,25.8,13.6c19.5,4.4,41.3,3.5,58.6-7.7
			c16.7-10.8,29.4-25.9,34.9-45.4c9-31.6,13.9-64.8,15.3-97.5c0.5-12.5-0.7-23.2-2.8-36c-2.8-17.5-12.7-33.7-24.6-46.5
			c-7-7.6-15.4-14.2-24.8-18.6c-19.3-9.1-28.7-11-50.2-13.3c-11.5-1.3-23.3-0.6-34.8,0c-13,0.7-26,1.8-38.9,3.2
			c-26.6,2.8-53,6.4-79.7,8.8c-29.5,2.6-59.2,3.5-88.6-0.3c6.7,0.9,13.5,1.8,20.2,2.7c-7.5-1-15-2-22.1-4.7
			c6.1,2.6,12.1,5.1,18.2,7.7c-2.2-0.9-4.3-2-6.2-3.4c5.1,4,10.3,7.9,15.4,11.9c-1.5-1.2-2.8-2.5-4.1-3.9c4,5.1,7.9,10.3,11.9,15.4
			c-1.2-1.7-2.1-3.4-2.9-5.3c2.6,6.1,5.1,12.1,7.7,18.2c-0.9-2.4-1.4-4.8-1.8-7.4c0.9,6.7,1.8,13.5,2.7,20.2
			c-0.8-6.3-0.6-12.6,0.1-18.9c-0.9,6.7-1.8,13.5-2.7,20.2c1.2-8.5,3.5-16.6,6.8-24.4c-2.6,6.1-5.1,12.1-7.7,18.2
			c3.7-8.4,8.4-16.2,13.9-23.5c-4,5.1-7.9,10.3-11.9,15.4c6.8-8.6,14.5-16.2,23.2-23c-5.1,4-10.3,7.9-15.4,11.9
			c13.5-10.3,28.4-18.3,44-24.9c-6.1,2.6-12.1,5.1-18.2,7.7c70.8-29.6,148.7-38.5,223.7-51.5c37.8-6.6,75.5-13.9,112.3-24.9
			c23.9-7.1,46.9-16.2,69.9-26.1c20.5-8.8,39.1-20.8,55.6-36.1c2.7-2.5,5.2-5.2,7.6-8.1c6.4-7.7,13.2-15.7,18.1-24.6
			c6.4-11.6,12.2-24.5,14.3-37.7c1.4-8.9,3.3-19.4,3.4-28.9c0-10.1-1.9-20.4-3.5-30.3c-2.1-13.3-8-25.7-13.5-37.9
			c-4.4-9.8-10.6-17.9-17.1-26.4c-6.6-8.5-12.9-16.5-21.3-23.3c-11.3-9.2-22.3-18-35.6-24.1c-13.5-6.2-27.3-12.2-41.8-15.7
			c-14.7-3.5-30-5.3-45.1-6.6c-9-0.8-18.1-1-27.2-0.7c-25.4,0.6-50.6,4.2-75.8,7.7c-39.8,5.5-79,14.8-117.6,26.1
			c-38.7,11.3-76.8,24.7-114.6,38.8c-37.3,13.9-74.4,28.9-113.3,37.9c-9.5,2.2-19.2,4-28.9,5.4c6.7-0.9,13.5-1.8,20.2-2.7
			c-18.5,2.4-37.2,2.9-55.8,0.6c6.7,0.9,13.5,1.8,20.2,2.7c-11.7-1.6-23.5-4.1-34.5-8.5c6.1,2.6,12.1,5.1,18.2,7.7
			c-4.9-2.1-9.6-4.6-13.8-7.9c5.1,4,10.3,7.9,15.4,11.9c-2.2-1.8-4.2-3.7-6-5.9c4,5.1,7.9,10.3,11.9,15.4c-1.8-2.4-3.2-4.8-4.4-7.5
			c2.6,6.1,5.1,12.1,7.7,18.2c-1-2.6-1.6-5.2-2.1-8c0.9,6.7,1.8,13.5,2.7,20.2c-0.7-5.5-0.4-11,0.3-16.5c-0.9,6.7-1.8,13.5-2.7,20.2
			c1.3-9.1,3.8-18,7.4-26.5c-2.6,6.1-5.1,12.1-7.7,18.2c4.3-9.8,9.8-18.8,16.3-27.2c-4,5.1-7.9,10.3-11.9,15.4
			c8.9-11.3,19.4-21.3,30.8-30.1c-5.1,4-10.3,7.9-15.4,11.9c18.7-14.3,39.4-25.2,61-34.4c-6.1,2.6-12.1,5.1-18.2,7.7
			c40.8-17.2,83.8-28.3,126.1-41.1c21.2-6.4,42.4-13.2,63-21.5c25.4-10.2,50.7-21,73.9-35.6c14.3-9,27.8-19.5,40.9-30.1
			c8.8-7.1,16.9-15,24-23.7c6.9-8.5,14.4-17.6,20.1-27.1c6.1-10.1,10.5-21.5,14.7-32.4c1.8-4.7,3.1-9.4,3.9-14.3
			c1.8-10.6,4-22.6,3.5-33.7c-1-23.4-6.2-42.6-16.7-63.4c-9.7-19.1-27.1-36-45.4-46.8c-21.1-12.5-43.6-16.9-67.7-18.7
			c-17.9-1.3-36.5,1.8-53.9,4.6c-54.5,9-102.1,40.7-157,48.2c6.7-0.9,13.5-1.8,20.2-2.7c-12.6,1.6-25.3,2-37.9,0.4
			c6.7,0.9,13.5,1.8,20.2,2.7c-9.2-1.2-18-3.5-26.6-6.9c6.1,2.6,12.1,5.1,18.2,7.7c-6.3-2.7-12.4-5.8-17.9-10
			c5.1,4,10.3,7.9,15.4,11.9c-2.3-1.9-4.5-3.9-6.4-6.2c4,5.1,7.9,10.3,11.9,15.4c-1.5-2-2.8-4-3.8-6.3c2.6,6.1,5.1,12.1,7.7,18.2
			c-0.8-2-1.4-4-1.8-6.1c0.9,6.7,1.8,13.5,2.7,20.2c-0.4-3.1-0.4-6.1,0-9.3c-0.9,6.7-1.8,13.5-2.7,20.2c0.7-3.8,1.8-7.3,3.3-10.8
			c-2.6,6.1-5.1,12.1-7.7,18.2c3-6.7,7-12.8,11.4-18.6c-4,5.1-7.9,10.3-11.9,15.4c28.1-36.3,61-68.9,97.3-96.9
			c-5.1,4-10.3,7.9-15.4,11.9c25.3-19.5,52.3-36.7,80.6-51.5c8.9-4.8,16-11.3,21.3-19.6c6.7-7.3,11.3-16,13.6-25.8
			c3.2-10.1,3.6-20.2,1.4-30.3c-0.5-10.1-3.5-19.5-9-28.3c-10.5-16.2-26-30.5-45.4-34.9C373.7,1.8,367,0.9,360.2,0
			C346.5,0,333.7,3.5,321.9,10.4L321.9,10.4z"/>
	</g>
</g>
</svg>
