<?xml version="1.0" encoding="utf-8"?>
<!-- Generator: Adobe Illustrator 22.1.0, SVG Export Plug-In . SVG Version: 6.00 Build 0)  -->
<svg version="1.1" xmlns="http://www.w3.org/2000/svg" xmlns:xlink="http://www.w3.org/1999/xlink" x="0px" y="0px"
	 viewBox="0 0 828 1119" style="enable-background:new 0 0 828 1119;" xml:space="preserve">
<style type="text/css">
	.st0{fill:#343EE4;}
	.st1{fill:#1A3EE2;}
</style>
<g id="Layer_1">
</g>
<g id="Layer_2">
	<g>
		<g>
			<path class="st1" d="M428.2,1015.3c-0.7,4.5-1.4,9.1-2.1,13.6c49.8,6.7,99.5,13.5,149.3,20.2c1.8-15.1,2.9-30.3,3.4-45.5
				c-0.9-6.7-1.8-13.5-2.7-20.2c-2.4-9.9-6.9-18.5-13.6-25.8c-3.4-5.7-7.9-10.3-13.6-13.6c-7.3-6.7-16-11.3-25.8-13.6
				c-13.4-3-27-3-40.4,0c-9.9,2.4-18.5,6.9-25.8,13.6c-8.3,5.4-14.8,12.5-19.6,21.3c-0.7,1.2-1.4,2.3-2.1,3.5
				c46.3,19.5,92.6,39,138.9,58.6c2.3-11.9,4.5-24.8,4.1-37.1c-0.3-9.2-2-18.5-3.4-27.6c-0.5-3.1-1-6.2-1.8-9.3
				c-3.1-11.8-8.3-23.2-13.6-34.1c-5.4-11-13.3-20.3-20.8-29.9c-3.8-4.8-7.9-9.3-12.6-13.3c-9-7.7-18.7-15.8-29.3-21.4
				c-24.3-13-49.3-18.7-76.8-19.5c-19.7-0.6-39.1,1.6-58.8-0.8c6.7,0.9,13.5,1.8,20.2,2.7c-13.7-1.9-27.4-5.1-40.2-10.4
				c6.1,2.6,12.1,5.1,18.2,7.7c-4-1.7-7.7-3.7-11.2-6.3c5.1,4,10.3,7.9,15.4,11.9c-1.8-1.5-3.4-3.1-4.8-4.9
				c4,5.1,7.9,10.3,11.9,15.4c-1.1-1.5-1.9-3-2.7-4.7c2.6,6.1,5.1,12.1,7.7,18.2c-0.5-1.5-0.9-3-1.2-4.6c0.9,6.7,1.8,13.5,2.7,20.2
				c-0.2-2.2-0.2-4.3,0.1-6.6c-0.9,6.7-1.8,13.5-2.7,20.2c0.5-2.8,1.3-5.4,2.4-8.1c-2.6,6.1-5.1,12.1-7.7,18.2
				c3.4-7.9,8.3-15.2,13.5-22c-4,5.1-7.9,10.3-11.9,15.4c7.4-9.4,15.9-17.7,25.3-25c-5.1,4-10.3,7.9-15.4,11.9
				c13.5-10.3,28.3-18.5,44-25.1c-6.1,2.6-12.1,5.1-18.2,7.7c27.3-11.3,56.2-17.8,85.4-21.8c-6.7,0.9-13.5,1.8-20.2,2.7
				c29.2-3.9,58.7-6.7,87.8-11.7c28.3-4.9,54.8-13.7,80.7-26.3c14.5-7,26.7-16.7,39.3-26.8c7.5-6,14.2-12.9,20.1-20.4
				c9.5-11.9,19.1-23.8,25.5-37.7c6.2-13.5,12.6-27.5,15.1-42.3c1.7-10.1,3.7-21.6,3.7-32.2c0-10.7-1.9-21.7-3.7-32.1
				c-2.6-14.7-9-29.4-16.7-42.1c-7.4-12-16.5-24.2-27.5-33.3c-11.1-9.2-22.6-18.5-35.7-24.5c-13.7-6.3-27.7-12.4-42.4-15.8
				c-15.2-3.5-30.8-5.4-46.3-6.7c-26.8-2.1-53.6,1.7-80.1,5.4c-27.1,3.8-53.7,10.1-79.4,19.2c-31.5,11.2-61.2,26.4-91.9,39.4
				c6.1-2.6,12.1-5.1,18.2-7.7c-17,7.1-34.5,13-52.8,15.6c6.7-0.9,13.5-1.8,20.2-2.7c-14.1,1.8-28.3,1.8-42.4,0
				c6.7,0.9,13.5,1.8,20.2,2.7c-14.1-2-27.8-5.7-41-11.1c6.1,2.6,12.1,5.1,18.2,7.7c-10.4-4.5-20.4-9.9-29.4-16.8
				c5.1,4,10.3,7.9,15.4,11.9c-6-4.8-11.5-10.1-16.3-16.1c4,5.1,7.9,10.3,11.9,15.4c-3.3-4.4-6.1-9-8.3-14
				c2.6,6.1,5.1,12.1,7.7,18.2c-1.7-4-2.8-8.1-3.5-12.4c0.9,6.7,1.8,13.5,2.7,20.2c-0.5-3.9-0.5-7.7-0.1-11.7
				c-0.9,6.7-1.8,13.5-2.7,20.2c0.6-4.3,1.8-8.4,3.4-12.5c-2.6,6.1-5.1,12.1-7.7,18.2c2.7-6.1,6.1-11.6,10.1-16.9
				c-4,5.1-7.9,10.3-11.9,15.4c10.5-13.5,23.1-25.4,36.7-35.9c-5.1,4-10.3,7.9-15.4,11.9c15-11.4,31.3-20.9,48.7-28.3
				c-6.1,2.6-12.1,5.1-18.2,7.7c32.1-13.3,66.7-18.8,98.8-32.2c21.1-8.8,41.6-17.8,60.9-30.2c11.9-7.6,22.9-16.3,34-25
				c6-4.7,11.7-9.9,16.8-15.5c6.3-7,12-14.7,17.6-22.3c2.4-3.3,4.7-6.6,6.7-10.2c4.7-8.3,8.1-17.5,11.6-26.3
				c1.5-3.8,2.8-7.7,3.7-11.8c2.1-9.5,3.3-19.4,4.1-29.1c0.4-4.1,0.2-8.1-0.2-12.2c-1-9.5-1.7-19.6-4.5-28.9
				c-2.8-9.3-6.8-18.6-11.3-27.2c-1.3-2.4-2.8-4.7-4.4-6.9c-5.3-7.3-10.7-15-17.1-21.4c-6.2-6.1-13.5-11.2-20.5-16.3
				c-2.5-1.8-5-3.6-7.7-5.1c-10.5-5.9-22-10.5-33.4-14.2c-5.9-1.9-12-3.3-18.2-4.3c-20.5-3.4-40.9-5.6-61.6-5.2
				c-14.7,0.3-29.3,0.2-43.8-1.6c6.7,0.9,13.5,1.8,20.2,2.7c-10.2-1.4-20.1-3.6-29.6-7.5c6.1,2.6,12.1,5.1,18.2,7.7
				c-5.4-2.3-10.5-5.2-15.3-8.7c5.1,4,10.3,7.9,15.4,11.9c-3.6-2.9-6.9-6-9.8-9.6c4,5.1,7.9,10.3,11.9,15.4c-2.8-3.6-5-7.4-6.9-11.6
				c2.6,6.1,5.1,12.1,7.7,18.2c-1.9-4.5-3.1-9-3.9-13.8c0.9,6.7,1.8,13.5,2.7,20.2c-0.7-5.8-0.6-11.5,0.2-17.2
				c-0.9,6.7-1.8,13.5-2.7,20.2c1.1-6.9,3-13.5,5.7-20c-2.6,6.1-5.1,12.1-7.7,18.2c3.9-9,8.9-17.3,14.9-25.1
				c-4,5.1-7.9,10.3-11.9,15.4c24.4-30.8,61.7-47.9,86.4-78.6c7.4-6.9,12.6-15,15.7-24.5c4.8-9.1,6.9-18.8,6.5-29.3
				c0.4-10.5-1.8-20.2-6.5-29.3c-3.1-9.4-8.3-17.6-15.7-24.5C396.1,9,377.1-0.9,356.8,0.1c-6.7,0.9-13.5,1.8-20.2,2.7
				c-12.9,3.6-24.1,10.1-33.5,19.5c-17.3,21.5-40.6,36.6-61.6,54.1c-28.9,24-51.2,55.5-62.3,91.7c-14.2,46.3-2.6,98.3,31.7,132.7
				c16.8,16.9,35.9,26.5,58,34.6c15.9,5.9,33.8,7.5,50.3,9.3c25.4,2.8,51-0.4,76.4,2.9c-6.7-0.9-13.5-1.8-20.2-2.7
				c10.6,1.5,20.9,3.8,30.8,8c-6.1-2.6-12.1-5.1-18.2-7.7c5.4,2.3,10.4,5.2,15.1,8.7c-5.1-4-10.3-7.9-15.4-11.9
				c3.6,2.8,6.7,5.9,9.6,9.4c-4-5.1-7.9-10.3-11.9-15.4c2.9,3.8,5.3,7.9,7.2,12.3c-2.6-6.1-5.1-12.1-7.7-18.2
				c1.6,4.1,2.7,8.2,3.3,12.5c-0.9-6.7-1.8-13.5-2.7-20.2c0.7,5.4,0.6,10.8-0.1,16.2c0.9-6.7,1.8-13.5,2.7-20.2
				c-0.9,6-2.5,11.8-4.8,17.4c2.6-6.1,5.1-12.1,7.7-18.2c-2.8,6.6-6.4,12.6-10.7,18.3c4-5.1,7.9-10.3,11.9-15.4
				c-7,9.1-15.4,16.9-24.5,23.9c5.1-4,10.3-7.9,15.4-11.9c-18.2,13.8-38.4,25.1-59.4,34.1c6.1-2.6,12.1-5.1,18.2-7.7
				c-18.3,7.7-37.3,13-56.4,18.3c-24.7,6.9-48.7,15.4-71.8,26.7c-21.3,10.4-40.3,24.6-58.6,39.7c-7.1,5.8-13.7,12.1-20,18.7
				c-10.1,10.7-19.6,22.4-27.5,34.7c-3.9,6.1-6.4,12.6-9.2,19.2c-3.1,7.3-6.1,13.8-7.3,21.6c-1.5,9.6-3.8,19.9-2.9,29.7
				c0.9,10.1,1.7,21,4.9,30.7c3.1,9.4,7,18.8,11.8,27.5c4.8,8.7,11.5,16.4,17.6,24.1c8.9,11.2,20.3,19.4,31.6,28
				c6.8,5.2,14,9.5,21.7,13.3c13.5,6.6,27.5,12.6,41.9,16.9c15,4.5,30.5,6.3,46,8.2c9,1.1,18.1,1.6,27.2,1.2
				c27.4-1.1,54.5-6.5,79.9-16.5c26.1-10.3,51.1-22.8,76.9-33.8c-6.1,2.6-12.1,5.1-18.2,7.7c32.6-13.8,66.9-23.1,101.9-28
				c-6.7,0.9-13.5,1.8-20.2,2.7c23.6-3.1,47.4-4.6,71-1.5c-6.7-0.9-13.5-1.8-20.2-2.7c12.2,1.7,24.2,4.6,35.6,9.3
				c-6.1-2.6-12.1-5.1-18.2-7.7c7.6,3.2,14.9,7.2,21.5,12.2c-5.1-4-10.3-7.9-15.4-11.9c5.1,4,9.7,8.4,13.7,13.5
				c-4-5.1-7.9-10.3-11.9-15.4c3.8,5,6.9,10.3,9.4,16.1c-2.6-6.1-5.1-12.1-7.7-18.2c2.2,5.5,3.7,11.1,4.5,16.9
				c-0.9-6.7-1.8-13.5-2.7-20.2c0.8,6.7,0.7,13.3-0.1,20c0.9-6.7,1.8-13.5,2.7-20.2c-1.1,7.7-3.3,15.1-6.2,22.3
				c2.6-6.1,5.1-12.1,7.7-18.2c-3.9,9.1-9,17.6-15.1,25.5c4-5.1,7.9-10.3,11.9-15.4c-6.5,8.3-14,15.7-22.4,22.2
				c5.1-4,10.3-7.9,15.4-11.9c-9.1,6.9-19,12.2-29.5,16.7c6.1-2.6,12.1-5.1,18.2-7.7c-24.1,10-49.7,14.7-75.4,18.2
				c6.7-0.9,13.5-1.8,20.2-2.7c-34.3,4.5-69,7.3-102.8,14.8c-12.6,2.8-25.1,6.3-37.3,10.7c-17.4,6.2-34.8,13.4-51,22.3
				c-32.7,17.9-59.7,43.3-80.7,74c-7.3,10.7-12.4,22.4-16.9,34.6c-0.6,1.6-1.1,3.2-1.5,4.8c-1.9,7.7-2.9,16.4-3.4,24.3
				c-0.1,1.7,0,3.3,0.1,4.9c0.6,7.8,1.3,16.5,3.7,24.1c2.1,6.8,5.5,14.3,8.8,20.7c2,3.8,5.3,7.5,7.7,10.6c2.7,3.4,5.4,7.6,8.7,10.7
				c5.4,5.2,12,9.7,18,14.1c2.3,1.7,4.7,3.2,7.3,4.4c8.5,4.2,17.4,7.8,26.3,11c8.5,3,17.3,5.4,26.1,7.1c14.9,2.8,30.1,4.9,45.3,5.5
				c18.7,0.7,37.5-1.9,56.2,0.6c-6.7-0.9-13.5-1.8-20.2-2.7c6.6,1,12.9,2.6,19.1,5.1c-6.1-2.6-12.1-5.1-18.2-7.7
				c6.2,2.7,12,6.1,17.4,10.3c-5.1-4-10.3-7.9-15.4-11.9c5.7,4.5,10.8,9.7,15.2,15.5c-4-5.1-7.9-10.3-11.9-15.4
				c4.4,5.8,8,12.1,10.9,18.8c-2.6-6.1-5.1-12.1-7.7-18.2c2.8,6.7,4.7,13.7,5.8,20.9c-0.9-6.7-1.8-13.5-2.7-20.2
				c0.9,6.8,0.9,13.5,0,20.2c0.9-6.7,1.8-13.5,2.7-20.2c-0.2,1.4-0.4,2.7-0.7,4c-3.2,10.1-3.6,20.2-1.4,30.3
				c0.5,10.1,3.5,19.5,9,28.3c4,5.1,7.9,10.3,11.9,15.4c6.9,7.4,15,12.6,24.5,15.7c5.9,3.4,12.3,5.2,19.2,5.2
				c10.1,2.3,20.2,1.8,30.3-1.4c18.9-6.1,35.1-17.5,45.4-34.9c0.7-1.2,1.4-2.3,2.1-3.5c-47.2-12.8-94.4-25.6-141.6-38.4
				c-0.5,15.2-1.6,30.4-3.4,45.5c-0.4,10.5,1.8,20.2,6.5,29.3c3.1,9.4,8.3,17.6,15.7,24.5c5.1,4,10.3,7.9,15.4,11.9
				c8.7,5.6,18.1,8.6,28.3,9c6.7,1.8,13.5,1.8,20.2,0c10.1-0.5,19.5-3.5,28.3-9c5.1-4,10.3-7.9,15.4-11.9
				c9.4-9.5,15.9-20.7,19.5-33.5c0.7-4.5,1.4-9.1,2.1-13.6c3.2-10.1,3.6-20.2,1.4-30.3c-0.5-10.1-3.5-19.5-9-28.3
				c-4.8-8.9-11.3-16-19.6-21.3c-7.3-6.7-16-11.3-25.8-13.6c-19.5-4.4-41.3-3.5-58.6,7.7c-5.1,4-10.3,7.9-15.4,11.9
				C438.3,991.3,431.8,1002.5,428.2,1015.3L428.2,1015.3z"/>
		</g>
	</g>
</g>
</svg>
