<svg width="1408" height="80" xmlns="http://www.w3.org/2000/svg">
 <style type="text/css">.st0{fill:#343EE4;stroke:#343EE4;stroke-width:2;stroke-miterlimit:10;}</style>

 <g>
  <title>background</title>
  <rect fill="none" id="canvas_background" height="82" width="1410" y="-1" x="-1"/>
 </g>
 <g>
  <title>Layer 1</title>
  <g id="svg_1">
   <path id="svg_2" d="m89.3,78.5l-18.3,0l-15,-51.7l-0.3,0l-15.1,51.7l-18.4,0l-21.7,-76.5l19.9,0l12.1,50.9l0.3,0l13.6,-50.9l19.2,0l13.7,50.9l0.3,0l12.3,-50.9l19.2,0l-21.8,76.5z" class="st0"/>
   <path id="svg_3" d="m160.8,78.5l0,-76.5l18.6,0l0,76.5l-18.6,0z" class="st0"/>
   <path id="svg_4" d="m285.6,78.5l-30.8,-50l-0.3,0l0.4,50l-17.9,0l0,-76.5l21,0l30.7,49.9l0.3,0l-0.4,-49.9l17.9,0l0,76.5l-20.9,0z" class="st0"/>
   <path id="svg_5" d="m433.4,78.5l0.4,-54.1l-0.3,0l-19.9,54.1l-13,0l-19.3,-54.1l-0.3,0l0.4,54.1l-17.4,0l0,-76.5l26.3,0l17.4,49l0.4,0l16.7,-49l26.7,0l0,76.5l-18.1,0z" class="st0"/>
   <path id="svg_6" d="m588.7,40c0,6 -1,11.6 -3.1,16.6c-2.1,5 -5,9.3 -8.7,12.9c-3.7,3.6 -8.1,6.3 -13.2,8.3c-5.1,1.9 -10.7,2.9 -16.6,2.9c-6,0 -11.5,-1 -16.6,-2.9c-5.1,-1.9 -9.5,-4.7 -13.2,-8.3c-3.7,-3.6 -6.6,-7.8 -8.7,-12.9c-2.1,-5 -3.1,-10.5 -3.1,-16.6c0,-6.1 1,-11.6 3.1,-16.6c2.1,-4.9 5,-9.1 8.7,-12.6c3.7,-3.5 8.1,-6.1 13.2,-8c5.1,-1.9 10.6,-2.8 16.6,-2.8c6,0 11.5,0.9 16.6,2.8c5.1,1.9 9.5,4.5 13.2,8c3.7,3.5 6.6,7.7 8.7,12.6c2.1,4.9 3.1,10.5 3.1,16.6zm-19.7,0c0,-3.3 -0.5,-6.4 -1.6,-9.3c-1.1,-2.9 -2.6,-5.3 -4.5,-7.4c-1.9,-2.1 -4.2,-3.7 -6.9,-4.9c-2.7,-1.2 -5.7,-1.8 -8.9,-1.8c-3.2,0 -6.2,0.6 -8.9,1.8c-2.7,1.2 -5,2.8 -6.9,4.9c-1.9,2.1 -3.4,4.5 -4.5,7.4c-1,2.9 -1.6,6 -1.6,9.3c0,3.5 0.5,6.6 1.6,9.6s2.6,5.4 4.5,7.5c1.9,2.1 4.2,3.7 6.9,4.9c2.7,1.2 5.6,1.8 8.9,1.8c3.2,0 6.2,-0.6 8.9,-1.8c2.7,-1.2 5,-2.8 6.9,-4.9c1.9,-2.1 3.5,-4.6 4.5,-7.5s1.6,-6.2 1.6,-9.6z" class="st0"/>
   <path id="svg_7" d="m691.3,78.5l-30.8,-50l-0.3,0l0.4,50l-17.9,0l0,-76.5l21.1,0l30.7,49.9l0.3,0l-0.4,-49.9l17.9,0l0,76.5l-21,0z" class="st0"/>
   <path id="svg_8" d="m849.6,40c0,6 -1,11.6 -3.1,16.6c-2.1,5 -5,9.3 -8.7,12.9c-3.7,3.6 -8.1,6.3 -13.2,8.3c-5.1,1.9 -10.7,2.9 -16.6,2.9c-6,0 -11.5,-1 -16.6,-2.9c-5.1,-1.9 -9.5,-4.7 -13.2,-8.3c-3.7,-3.6 -6.6,-7.8 -8.7,-12.9c-2.1,-5 -3.1,-10.5 -3.1,-16.6c0,-6.1 1,-11.6 3.1,-16.6c2.1,-4.9 5,-9.1 8.7,-12.6c3.7,-3.5 8.1,-6.1 13.2,-8c5.1,-1.9 10.6,-2.8 16.6,-2.8c6,0 11.5,0.9 16.6,2.8c5.1,1.9 9.5,4.5 13.2,8c3.7,3.5 6.6,7.7 8.7,12.6c2,4.9 3.1,10.5 3.1,16.6zm-19.8,0c0,-3.3 -0.5,-6.4 -1.6,-9.3c-1.1,-2.9 -2.6,-5.3 -4.5,-7.4c-1.9,-2.1 -4.2,-3.7 -6.9,-4.9c-2.7,-1.2 -5.7,-1.8 -8.9,-1.8c-3.2,0 -6.2,0.6 -8.9,1.8c-2.7,1.2 -5,2.8 -6.9,4.9c-1.9,2.1 -3.4,4.5 -4.5,7.4c-1,2.9 -1.6,6 -1.6,9.3c0,3.5 0.5,6.6 1.6,9.6s2.6,5.4 4.5,7.5c1.9,2.1 4.2,3.7 6.9,4.9c2.7,1.2 5.6,1.8 8.9,1.8c3.2,0 6.2,-0.6 8.9,-1.8c2.7,-1.2 5,-2.8 6.9,-4.9c1.9,-2.1 3.5,-4.6 4.5,-7.5s1.6,-6.2 1.6,-9.6z" class="st0"/>
   <path id="svg_9" d="m961.5,25.6c0,4.5 -0.8,8.2 -2.5,11.3c-1.7,3.1 -3.9,5.5 -6.7,7.4c-2.8,1.9 -6,3.2 -9.7,4.1c-3.7,0.9 -7.5,1.3 -11.4,1.3l-9.2,0l0,28.8l-18.5,0l0,-76.5l28.1,0c4.2,0 8.1,0.4 11.7,1.2c3.6,0.8 6.8,2.2 9.5,4c2.7,1.8 4.8,4.2 6.4,7.2c1.6,3.1 2.3,6.8 2.3,11.2zm-18.4,0.1c0,-1.8 -0.4,-3.3 -1.1,-4.4c-0.7,-1.2 -1.7,-2.1 -2.9,-2.7c-1.2,-0.6 -2.6,-1.1 -4.2,-1.3c-1.5,-0.2 -3.2,-0.3 -4.8,-0.3l-8.1,0l0,18l7.8,0c1.7,0 3.4,-0.1 5,-0.4c1.6,-0.3 3,-0.8 4.3,-1.5c1.3,-0.7 2.2,-1.7 3,-2.9c0.6,-1.2 1,-2.7 1,-4.5z" class="st0"/>
   <path id="svg_10" d="m1094.2,40c0,6 -1,11.6 -3.1,16.6c-2.1,5 -5,9.3 -8.7,12.9c-3.7,3.6 -8.1,6.3 -13.2,8.3c-5.1,1.9 -10.7,2.9 -16.6,2.9c-6,0 -11.5,-1 -16.6,-2.9c-5.1,-1.9 -9.5,-4.7 -13.2,-8.3c-3.7,-3.6 -6.6,-7.8 -8.7,-12.9c-2.1,-5 -3.1,-10.5 -3.1,-16.6c0,-6.1 1,-11.6 3.1,-16.6c2.1,-4.9 5,-9.1 8.7,-12.6c3.7,-3.5 8.1,-6.1 13.2,-8c5.1,-1.9 10.6,-2.8 16.6,-2.8c6,0 11.5,0.9 16.6,2.8c5.1,1.9 9.5,4.5 13.2,8c3.7,3.5 6.6,7.7 8.7,12.6c2,4.9 3.1,10.5 3.1,16.6zm-19.8,0c0,-3.3 -0.5,-6.4 -1.6,-9.3c-1.1,-2.9 -2.6,-5.3 -4.5,-7.4c-1.9,-2.1 -4.2,-3.7 -6.9,-4.9c-2.7,-1.2 -5.7,-1.8 -8.9,-1.8c-3.2,0 -6.2,0.6 -8.9,1.8c-2.7,1.2 -5,2.8 -6.9,4.9c-1.9,2.1 -3.4,4.5 -4.5,7.4c-1,2.9 -1.6,6 -1.6,9.3c0,3.5 0.5,6.6 1.6,9.6s2.6,5.4 4.5,7.5c1.9,2.1 4.2,3.7 6.9,4.9c2.7,1.2 5.6,1.8 8.9,1.8c3.2,0 6.2,-0.6 8.9,-1.8c2.7,-1.2 5,-2.8 6.9,-4.9c1.9,-2.1 3.5,-4.6 4.5,-7.5s1.6,-6.2 1.6,-9.6z" class="st0"/>
   <path id="svg_11" d="m1148.2,78.5l0,-76.5l18.6,0l0,60.4l29.6,0l0,16.1l-48.2,0z" class="st0"/>
   <path id="svg_12" d="m1246.8,78.5l0,-76.5l51.4,0l0,15.6l-33.6,0l0,14.5l31.8,0l0,14.8l-31.8,0l0,15.9l35.5,0l0,15.8l-53.3,0l0,-0.1z" class="st0"/>
   <path id="svg_13" d="m1386.9,17.8l0,60.7l-18.5,0l0,-60.7l-21.6,0l0,-15.8l61.7,0l0,15.8l-21.6,0z" class="st0"/>
  </g>
  <rect id="svg_14" fill="none" height="2.6" width="0" y="148.3" x="-264.8"/>
 </g>
</svg>