<?xml version="1.0" standalone="no"?>
<!DOCTYPE svg PUBLIC "-//W3C//DTD SVG 20010904//EN"
 "http://www.w3.org/TR/2001/REC-SVG-20010904/DTD/svg10.dtd">
<svg version="1.0" xmlns="http://www.w3.org/2000/svg"
 width="2067.000000pt" height="221.000000pt" viewBox="0 0 2067.000000 221.000000"
 preserveAspectRatio="xMidYMid meet">
<metadata>
Created by potrace 1.15, written by Peter Selinger 2001-2017
</metadata>
<g transform="translate(0.000000,221.000000) scale(0.100000,-0.100000)"
fill="#3e4cdf" stroke="black">
<path d="M456 2197 c-11 -8 -62 -162 -152 -467 -147 -497 -212 -716 -270 -914
-21 -72 -34 -131 -28 -133 5 -2 74 -41 154 -88 l145 -84 230 237 c364 376 426
438 421 422 -3 -8 -26 -89 -51 -180 -47 -167 -134 -464 -180 -619 -14 -46 -24
-85 -23 -87 15 -13 303 -174 309 -172 4 2 71 71 150 153 78 83 235 247 349
365 551 576 580 607 580 633 0 21 -20 36 -151 111 -84 47 -154 86 -158 85 -5
0 -386 -427 -569 -636 -26 -30 -31 -33 -23 -13 6 14 45 138 87 275 42 138 98
321 126 408 27 88 48 160 46 162 -2 2 -74 44 -162 95 -130 75 -161 89 -171 78
-7 -7 -133 -143 -280 -303 -147 -159 -281 -303 -297 -320 l-29 -30 11 30 c19
48 280 822 280 829 0 3 -4 6 -9 6 -5 0 -75 38 -156 85 -81 47 -151 85 -154 85
-4 0 -15 -6 -25 -13z"/>
<path d="M5920 2074 c-14 -4 -63 -86 -520 -879 -111 -192 -213 -367 -226 -388
-39 -60 -29 -72 113 -154 70 -40 134 -73 143 -73 21 0 35 16 69 78 60 111 366
640 368 638 2 -1 -27 -130 -63 -287 -36 -156 -79 -340 -95 -409 -16 -69 -31
-135 -34 -146 -4 -18 12 -31 111 -88 l115 -66 187 172 c103 94 243 224 312
287 69 63 138 127 154 141 l29 25 -26 -40 c-14 -22 -111 -188 -217 -369 -162
-278 -190 -332 -182 -350 11 -24 254 -166 283 -166 24 0 14 -17 384 625 175
303 335 580 357 618 25 43 37 74 33 87 -4 11 -80 61 -193 126 -103 59 -195
112 -204 118 -14 9 -32 -4 -105 -74 -195 -187 -354 -340 -465 -449 -107 -105
-117 -112 -108 -81 6 19 40 161 76 315 104 441 132 560 130 561 -12 9 -406
234 -408 233 -2 -1 -10 -3 -18 -5z" />
<path d="M4032 2003 c-10 -16 -182 -310 -381 -655 -262 -454 -361 -633 -356
-647 9 -28 263 -174 291 -167 19 5 155 230 292 485 14 25 41 72 61 105 20 34
48 82 61 108 13 26 25 46 26 45 1 -1 -2 -87 -6 -192 -20 -433 -30 -674 -30
-735 l0 -66 161 -93 c136 -79 165 -92 183 -83 14 6 118 175 296 483 150 261
318 550 372 643 95 165 106 189 90 212 -16 24 -261 156 -283 152 -22 -3 -35
-23 -156 -238 -73 -130 -277 -486 -281 -490 -3 -3 -2 72 2 165 7 174 9 235 26
599 6 115 9 210 7 212 -19 18 -322 184 -336 184 -11 0 -28 -12 -39 -27z" />
<path d="M9929 2003 c-9 -2 -64 -86 -122 -186 -609 -1052 -647 -1119 -641
-1140 6 -27 265 -177 293 -170 10 2 45 53 80 116 165 293 355 626 357 624 1
-1 -2 -81 -6 -177 -30 -652 -33 -801 -19 -814 37 -34 305 -177 327 -174 20 3
81 103 399 652 325 561 374 653 367 673 -12 33 -257 175 -288 167 -15 -4 -61
-76 -166 -261 -80 -140 -174 -305 -208 -367 l-64 -111 7 165 c3 91 12 314 20
495 7 182 12 330 12 331 -1 0 -75 41 -164 92 -90 51 -164 91 -165 91 -2 -1
-10 -3 -19 -6z" />
<path d="M18373 1932 c-7 -4 -181 -299 -387 -655 -253 -437 -373 -653 -369
-666 3 -13 83 -64 226 -147 122 -70 298 -171 390 -225 109 -63 175 -95 187
-92 27 7 180 275 173 302 -3 14 -65 55 -182 122 -97 56 -206 119 -243 140
l-67 39 38 63 c21 34 48 81 60 103 l23 41 216 -124 c150 -86 222 -123 236
-119 23 6 166 242 166 275 0 25 3 23 -232 158 l-206 119 49 85 c27 46 50 88
52 93 2 5 106 -50 232 -123 165 -96 235 -131 251 -127 30 8 179 267 170 299
-4 17 -96 74 -376 235 -203 116 -375 212 -382 212 -7 0 -18 -4 -25 -8z" />
<path d="M17172 1873 c-30 -27 -752 -1283 -752 -1308 0 -19 56 -55 349 -224
193 -110 359 -201 370 -201 23 0 36 17 124 170 42 75 64 123 61 135 -3 13 -71
58 -192 127 -103 60 -193 112 -200 116 -10 7 41 102 201 378 372 644 360 621
353 646 -4 17 -43 45 -140 101 -74 42 -139 77 -144 77 -6 0 -19 -8 -30 -17z" />
<path d="M11890 1845 c-198 -40 -374 -164 -510 -361 -184 -266 -230 -586 -120
-831 133 -293 467 -464 780 -398 334 70 631 425 681 812 33 257 -85 515 -302
659 -170 113 -354 154 -529 119z m262 -417 c64 -28 133 -105 153 -171 61 -204
-69 -479 -272 -579 -157 -77 -338 -16 -404 136 -63 148 -9 360 130 509 121
128 255 164 393 105z" />
<path d="M19745 1850 c-30 -12 -176 -271 -168 -298 4 -15 48 -46 147 -103
l143 -81 -290 -500 c-219 -377 -288 -504 -283 -521 8 -31 267 -180 298 -171
17 4 55 60 145 217 254 444 445 772 451 779 4 3 69 -30 145 -74 83 -47 147
-78 160 -76 30 4 182 267 174 300 -5 18 -109 82 -449 278 -243 140 -444 256
-447 257 -3 1 -15 -2 -26 -7z" />
<path d="M8111 1825 c-322 -73 -608 -419 -662 -800 -36 -254 67 -503 269 -653
249 -184 546 -197 802 -34 189 120 360 358 422 586 27 102 34 262 14 356 -50
238 -236 438 -487 526 -94 33 -260 41 -358 19z m286 -414 c66 -33 110 -77 139
-139 39 -80 39 -196 2 -299 -35 -97 -107 -202 -176 -258 -180 -143 -404 -104
-491 85 -94 207 76 549 312 626 59 19 162 12 214 -15z" />
<path d="M15330 1821 c-322 -88 -594 -426 -640 -799 -44 -345 155 -651 500
-768 79 -27 311 -27 390 0 182 62 330 178 449 351 154 222 215 486 162 695
-64 253 -258 446 -521 519 -95 27 -246 27 -340 2z m297 -400 c61 -28 127 -94
154 -154 31 -70 32 -195 1 -284 -49 -141 -147 -260 -262 -316 -57 -28 -75 -32
-145 -32 -65 0 -89 5 -129 25 -170 87 -208 311 -90 529 65 119 150 199 248
233 69 23 169 23 223 -1z" />
<path d="M13629 1734 c-7 -8 -178 -302 -381 -652 -267 -462 -367 -643 -363
-658 6 -27 265 -177 296 -172 20 3 77 94 259 415 l30 53 49 -30 c87 -54 201
-101 279 -116 216 -41 404 67 517 299 115 237 57 442 -169 601 -92 65 -462
276 -484 276 -11 0 -25 -7 -33 -16z m290 -540 c70 -47 87 -104 51 -175 -36
-69 -103 -94 -181 -67 -26 9 -109 54 -137 74 -3 2 81 151 125 222 l14 22 47
-27 c26 -15 62 -37 81 -49z" />
<path d="M2829 1608 c-9 -7 -183 -302 -387 -656 -311 -538 -370 -646 -363
-665 12 -29 270 -178 298 -171 29 8 775 1298 767 1328 -3 14 -46 45 -137 96
-72 41 -139 76 -147 78 -8 1 -22 -3 -31 -10z" />
</g>
</svg>
